<svg width="120" height="78" viewBox="0 0 120 78" fill="none" xmlns="http://www.w3.org/2000/svg">
<g id="activity">
<path id="Vector" d="M115.385 27.584C114.384 26.6376 112.806 26.6853 111.86 27.6867L106.549 33.3207C102.672 29.6197 97.4375 25.3465 90.9782 21.6748L94.3821 14.8377C94.9946 13.6053 94.4958 12.1087 93.2634 11.4962C92.0272 10.8799 90.5307 11.3825 89.9218 12.6149L86.5619 19.364C79.4791 15.9711 71.1747 13.4659 61.7737 13.0881L61.4729 5.39632C61.4179 4.02083 60.2478 2.96077 58.8833 3.00111C57.5078 3.05613 56.4368 4.21522 56.4881 5.59071L56.7816 13.0881C48.3158 13.3962 40.9432 15.2412 34.6013 17.9041L31.1497 10.9753C30.5371 9.74287 29.0369 9.23669 27.8081 9.85658C26.5757 10.4691 26.0732 11.9693 26.6894 13.1981L30.0896 20.0242C22.5776 23.9196 16.7602 28.8604 12.531 33.3207L7.30776 27.782C6.36142 26.7807 4.78419 26.733 3.78283 27.6793C2.78147 28.6257 2.73378 30.2029 3.68012 31.2043L9.21879 37.0767C7.97901 38.5879 6.9483 39.9708 6.13767 41.1372C4.49075 43.5067 4.54209 46.6428 6.26972 48.939C12.1642 56.7738 29.125 75 59.3088 75C86.6683 75 105.21 55.5927 111.911 47.248C113.914 44.7538 113.852 41.1848 111.761 38.7676C111.262 38.1918 110.69 37.5535 110.059 36.875L115.495 31.1126C116.441 30.1112 116.394 28.534 115.392 27.5876L115.385 27.584Z" fill="black" stroke="#739AF0" stroke-width="6" stroke-miterlimit="10"/>
<path id="Vector_2" d="M59.305 72.8172C86.0703 72.8172 104.278 53.4465 110.448 45.7621C111.886 43.9721 111.845 41.4155 110.341 39.6806C104.073 32.44 85.9162 14.5952 59.305 14.5952C29.5063 14.5952 12.8976 34.3877 7.67075 41.8924C6.48599 43.5907 6.519 45.8465 7.76245 47.5007C13.092 54.5836 29.6787 72.8172 59.305 72.8172Z" fill="white" stroke="black" stroke-width="2.5" stroke-miterlimit="10"/>
<path id="Vector_3" d="M11.4819 35.529L5.49573 29.1797" stroke="black" stroke-width="3" stroke-miterlimit="10" stroke-linecap="round"/>
<path id="Vector_4" d="M32.8148 19.5838L28.9231 11.771" stroke="black" stroke-width="3" stroke-miterlimit="10" stroke-linecap="round"/>
<path id="Vector_5" d="M92.1555 13.4146L88.2638 21.2274" stroke="black" stroke-width="3" stroke-miterlimit="10" stroke-linecap="round"/>
<path id="Vector_6" d="M59.3234 13.9022L58.9823 5.17969" stroke="black" stroke-width="3" stroke-miterlimit="10" stroke-linecap="round"/>
<path id="Vector_7" d="M113.676 29.0879L107.689 35.4372" stroke="black" stroke-width="3" stroke-miterlimit="10" stroke-linecap="round"/>
<path id="Vector_8" d="M59.1255 73.1514C75.2041 73.1514 88.2383 60.1171 88.2383 44.0386C88.2383 27.96 75.2041 14.9258 59.1255 14.9258C43.0469 14.9258 30.0127 27.96 30.0127 44.0386C30.0127 60.1171 43.0469 73.1514 59.1255 73.1514Z" fill="#739AF0" stroke="black" stroke-width="2.5" stroke-miterlimit="10"/>
<path id="Vector_9" d="M58.9823 57.4375C66.5668 57.4375 72.7153 51.2891 72.7153 43.7046C72.7153 36.1201 66.5668 29.9717 58.9823 29.9717C51.3978 29.9717 45.2494 36.1201 45.2494 43.7046C45.2494 51.2891 51.3978 57.4375 58.9823 57.4375Z" fill="black"/>
</g>
</svg>
