<svg width="72" height="62" viewBox="0 0 72 62" fill="none" xmlns="http://www.w3.org/2000/svg">
<path id="Vector" fill-rule="evenodd" clip-rule="evenodd" d="M52.2435 6.92588C55.7362 7.10868 58.5125 8.9127 61.2888 10.9384C70.3938 17.5906 73.439 27.9118 67.1998 38.0542C57.4977 53.7826 34.8991 64.0765 17.3756 59.3258C13.4948 58.2788 8.24068 57.356 4.38969 52.2431C0.807369 47.4891 0.956633 41.8374 2.59853 36.6051C4.27028 31.2405 7.49437 26.303 10.0617 23.1292C21.2863 9.28194 43.7654 -3.30335 64.095 3.33152C64.513 3.45935 64.931 3.23951 65.0504 2.8405C65.1698 2.4415 64.9606 2.01365 64.5726 1.88581C43.6458 -4.94248 20.4503 7.91306 8.89733 22.1639C5.70309 26.1214 1.52395 32.7278 0.329843 39.563C-0.476179 44.2348 0.0909053 49.0104 3.19558 53.1647C7.2854 58.611 12.8679 59.6778 16.9876 60.7928C35.0783 65.6996 58.4528 55.1047 68.4534 38.8604C75.1703 27.9592 71.9463 16.8551 62.1546 9.70493C59.1693 7.50708 56.1243 5.60771 52.333 5.40973C51.915 5.38817 51.5569 5.71035 51.5569 6.12879C51.5271 6.54722 51.8554 6.90432 52.2435 6.92588Z" fill="#C4B9FA"/>
</svg>
