<svg width="317" height="174" viewBox="0 0 317 174" fill="none" xmlns="http://www.w3.org/2000/svg">
<path fill-rule="evenodd" clip-rule="evenodd" d="M230.016 19.4372C245.394 19.9502 257.617 25.0131 269.841 30.698C309.928 49.367 323.336 78.3331 295.866 106.797C253.15 150.938 153.653 179.828 76.5009 166.495C59.4144 163.557 36.2819 160.967 19.3268 146.618C3.55467 133.276 4.21184 117.415 11.4407 102.731C18.8011 87.6749 32.996 73.8182 44.2994 64.9111C93.7189 26.0493 192.689 -9.27069 282.196 9.34974C284.036 9.70851 285.877 9.09152 286.402 7.97174C286.928 6.85195 286.007 5.65122 284.299 5.29244C192.163 -13.8708 90.0382 22.2076 39.173 62.2019C25.1094 73.3086 6.70961 91.8489 1.45223 111.032C-2.09651 124.143 0.400236 137.545 14.0694 149.204C32.076 164.489 56.6545 167.483 74.7925 170.612C154.442 184.383 257.355 154.649 301.385 109.06C330.958 78.466 316.764 47.303 273.653 27.2364C260.509 21.0683 247.103 15.7378 230.41 15.1821C228.57 15.1216 226.994 16.0258 226.994 17.2001C226.862 18.3745 228.308 19.3766 230.016 19.4372Z" fill="#4DA760"/>
</svg>
