<svg width="56" height="48" viewBox="0 0 56 48" fill="none" xmlns="http://www.w3.org/2000/svg">
<g id="Vector">
<path d="M7.57814 46.9726C21.5908 31.4504 36.2287 16.5075 51.4612 2.18988C52.3761 1.336 52.0864 0.405887 50.8971 0.100931C49.601 -0.23452 47.695 0.299152 46.7344 1.21402C31.5172 15.5469 16.8793 30.4898 2.86658 45.9967C0.564167 48.5584 6.26684 48.4211 7.59339 46.9574L7.57814 46.9726Z" fill="#F6C944"/>
<path d="M0.304955 4.77223L50.0432 44.9349C51.0953 45.7887 52.7878 45.499 53.9466 44.9959C54.5261 44.7519 56.5693 43.4863 55.5172 42.6325L5.76366 2.46982C4.71156 1.61594 3.01906 1.90565 1.86023 2.40883C1.28081 2.65279 -0.762389 3.91836 0.289708 4.77223H0.304955Z" fill="#F6C944"/>
</g>
</svg>
