<svg width="148" height="135" viewBox="0 0 148 135" fill="none" xmlns="http://www.w3.org/2000/svg">
<g id="delete">
<path id="Vector" d="M86.2477 66.3371L89.091 62.6048C90.7803 60.3887 90.3551 57.2224 88.1424 55.5345L82.5671 51.2858C83.3954 50.6836 84.3036 50.1239 85.3071 49.6356C91.2209 46.7443 96.9004 47.8362 99.0679 48.4388L100.381 43.7332C97.6776 42.9805 90.5888 41.6217 83.1696 45.2493C81.4069 46.1101 79.8761 47.1256 78.5444 48.2206L71.5951 42.9241C69.3823 41.2363 66.2177 41.6653 64.5284 43.8814L62.7559 46.2063C53.9477 43.5911 44.1709 44.1462 35.2618 48.5112C16.4158 57.7435 8.59879 80.5087 17.8019 99.3594C27.0068 118.207 49.7483 126.003 68.5973 116.773C87.3081 107.607 95.1377 85.1107 86.2459 66.3402L86.2477 66.3371Z" fill="white" stroke="#5452F6" stroke-width="10" stroke-miterlimit="10"/>
<path id="Vector_2" d="M85.9966 66.2134L88.8266 62.4986C90.5079 60.2929 90.0848 57.1414 87.8824 55.4615L82.3333 51.2327C83.1577 50.6334 84.0617 50.0763 85.0604 49.5903C90.9465 46.7125 100.029 47.9238 102.187 48.5235L100.771 43.6011C98.0798 42.8519 90.3174 41.6139 82.9347 45.2215C81.1803 46.0783 79.6567 47.0891 78.3313 48.1789L71.4145 42.9073C69.2122 41.2274 66.0623 41.6544 64.381 43.8601L62.6168 46.174C53.8499 43.5712 44.119 44.1236 35.2517 48.4681C16.4942 57.6571 8.71389 80.3155 17.8738 99.0777C27.0355 117.837 49.6703 125.596 68.4308 116.409C87.0538 107.286 94.8467 84.8959 85.9966 66.2134Z" fill="#5452F6" stroke="#0d0d0d" stroke-width="3" stroke-miterlimit="10"/>
<path id="Vector_3" d="M99.0936 33.1235C98.5406 33.0045 87.5876 35.053 87.5876 35.053L97.7019 40.9273L93.3104 47.5817L100.185 47.782L93.9504 60.4289L106.177 52.6775L109.776 63.7705L114.146 53.6337L124.494 60.6931L118.855 48.1092L132.314 47.2292L121.441 40.914L128.33 33.459L118.145 33.6776L123.837 19.2868L112.974 28.0318L108.737 15.3583L105.207 28.0153L92.7907 20.0666L99.081 33.1217L99.0936 33.1235Z" fill="white" stroke="#DF5A31" stroke-width="9" stroke-miterlimit="10"/>
<path id="Vector_4" d="M99.0936 33.1235C98.5406 33.0045 87.5876 35.053 87.5876 35.053L97.7019 40.9273L93.3104 47.5817L100.185 47.782L93.9504 60.4289L106.177 52.6775L109.776 63.7705L114.146 53.6337L124.494 60.6931L118.855 48.1092L132.314 47.2292L121.441 40.914L128.33 33.459L118.145 33.6776L123.837 19.2868L112.974 28.0318L108.737 15.3583L105.207 28.0153L92.7907 20.0666L99.081 33.1217L99.0936 33.1235Z" fill="#DF5A31" stroke="#0d0d0d" stroke-width="2" stroke-miterlimit="10"/>
<path id="Vector_5" d="M113.242 41.9846C113.468 41.9989 117.691 40.5323 117.691 40.5323L113.342 38.8017L114.696 35.8966L111.96 36.2268L113.698 30.8315L109.301 34.6393L107.231 30.4474L106.087 34.7345L101.575 32.5471L104.54 37.2097L99.2565 38.3614L103.933 40.2219L101.634 43.5939L105.658 42.9L104.236 48.9558L108.036 44.8344L110.45 49.6162L111.115 44.3781L116.498 46.7955L113.247 41.9846L113.242 41.9846Z" fill="#F6C944"/>
</g>
</svg>
