<svg width="16" height="16" viewBox="0 0 16 16" fill="none" xmlns="http://www.w3.org/2000/svg">
<g id="Vector">
<mask id="path-1-outside-1_143_445" maskUnits="userSpaceOnUse" x="-0.517944" y="0.211426" width="17" height="16" fill="black">
<rect fill="white" x="-0.517944" y="0.211426" width="17" height="16"/>
<path fill-rule="evenodd" clip-rule="evenodd" d="M7.20499 10.0576C7.2593 9.98413 7.30179 9.89806 7.34414 9.81211C7.59382 9.37096 7.8908 8.86276 7.98579 8.35254C8.1057 7.67846 7.94464 7.19248 7.62519 6.8522C7.17521 6.37363 6.36224 6.20566 5.59276 6.34994C4.82773 6.49012 4.1044 6.92069 3.79164 7.56082C3.57401 7.99596 3.54594 8.53856 3.835 9.16519C4.15868 9.87742 4.78547 10.2638 5.52343 10.4304C5.80609 10.4991 6.08949 10.5202 6.38742 10.5279C6.21532 10.7568 6.04124 10.9875 5.86418 11.2209C5.26316 11.9618 4.55646 12.6591 3.8211 13.2653C2.8597 14.0794 1.79798 14.7039 0.614193 15.1354C0.511665 15.1828 0.456234 15.3043 0.493896 15.4106C0.531685 15.5167 0.651224 15.5711 0.765456 15.5364C1.99466 15.0866 3.10295 14.4428 4.10073 13.5952C4.84473 12.9576 5.58419 12.2535 6.19373 11.4813C6.44304 11.1579 6.6869 10.8396 6.91573 10.5116C7.56195 10.4573 8.19152 10.3008 8.67643 10.113C11.8783 8.81113 14.0217 4.70148 15.1273 1.5701C15.1678 1.46242 15.1145 1.34685 15.0044 1.30728C14.8941 1.26783 14.7769 1.32865 14.7365 1.43633C13.6651 4.46576 11.6186 8.46295 8.51665 9.71985C8.15183 9.86762 7.68838 9.98864 7.20499 10.0576ZM6.67423 10.0996C6.78693 9.94889 6.8871 9.78639 6.97511 9.61145C7.19516 9.19757 7.48391 8.744 7.57661 8.28287C7.66855 7.77546 7.56374 7.40193 7.32711 7.14986C6.94838 6.74668 6.29074 6.6472 5.67314 6.76917C5.03952 6.88239 4.42458 7.21327 4.17364 7.74954C4.00778 8.09007 3.99272 8.50334 4.21143 8.9833C4.48485 9.57735 5.01399 9.88897 5.61431 10.0178C5.95842 10.1005 6.31893 10.1211 6.67423 10.0996Z"/>
<path fill-rule="evenodd" clip-rule="evenodd" d="M14.6644 1.66469C14.6781 1.76961 14.6694 1.89501 14.6606 2.02053C14.6483 2.26676 14.6166 2.50744 14.6379 2.67568C14.7548 3.69566 14.9076 4.91738 15.3415 5.85709C15.3854 5.95763 15.512 6.00559 15.6168 5.95612C15.7215 5.90677 15.7738 5.78823 15.7182 5.67496C15.31 4.78208 15.1757 3.61364 15.0526 2.62288C15.0371 2.44925 15.0737 2.15725 15.0892 1.90809C15.0963 1.69014 15.0807 1.49312 15.0079 1.34868C14.9723 1.26401 14.8415 1.17293 14.628 1.2284C14.3314 1.31344 13.6856 1.74306 13.6193 1.78055C12.9495 2.16202 12.346 2.48241 11.5522 2.32021C11.4435 2.30284 11.3347 2.37945 11.3008 2.48116C11.2785 2.5956 11.3569 2.71143 11.4658 2.72868C12.367 2.90954 13.0756 2.5863 13.8345 2.14639C13.8747 2.10941 14.2585 1.85024 14.5629 1.71109C14.5999 1.70052 14.6278 1.67491 14.6644 1.66469Z"/>
</mask>
<path fill-rule="evenodd" clip-rule="evenodd" d="M7.20499 10.0576C7.2593 9.98413 7.30179 9.89806 7.34414 9.81211C7.59382 9.37096 7.8908 8.86276 7.98579 8.35254C8.1057 7.67846 7.94464 7.19248 7.62519 6.8522C7.17521 6.37363 6.36224 6.20566 5.59276 6.34994C4.82773 6.49012 4.1044 6.92069 3.79164 7.56082C3.57401 7.99596 3.54594 8.53856 3.835 9.16519C4.15868 9.87742 4.78547 10.2638 5.52343 10.4304C5.80609 10.4991 6.08949 10.5202 6.38742 10.5279C6.21532 10.7568 6.04124 10.9875 5.86418 11.2209C5.26316 11.9618 4.55646 12.6591 3.8211 13.2653C2.8597 14.0794 1.79798 14.7039 0.614193 15.1354C0.511665 15.1828 0.456234 15.3043 0.493896 15.4106C0.531685 15.5167 0.651224 15.5711 0.765456 15.5364C1.99466 15.0866 3.10295 14.4428 4.10073 13.5952C4.84473 12.9576 5.58419 12.2535 6.19373 11.4813C6.44304 11.1579 6.6869 10.8396 6.91573 10.5116C7.56195 10.4573 8.19152 10.3008 8.67643 10.113C11.8783 8.81113 14.0217 4.70148 15.1273 1.5701C15.1678 1.46242 15.1145 1.34685 15.0044 1.30728C14.8941 1.26783 14.7769 1.32865 14.7365 1.43633C13.6651 4.46576 11.6186 8.46295 8.51665 9.71985C8.15183 9.86762 7.68838 9.98864 7.20499 10.0576ZM6.67423 10.0996C6.78693 9.94889 6.8871 9.78639 6.97511 9.61145C7.19516 9.19757 7.48391 8.744 7.57661 8.28287C7.66855 7.77546 7.56374 7.40193 7.32711 7.14986C6.94838 6.74668 6.29074 6.6472 5.67314 6.76917C5.03952 6.88239 4.42458 7.21327 4.17364 7.74954C4.00778 8.09007 3.99272 8.50334 4.21143 8.9833C4.48485 9.57735 5.01399 9.88897 5.61431 10.0178C5.95842 10.1005 6.31893 10.1211 6.67423 10.0996Z" fill="#F6C944"/>
<path fill-rule="evenodd" clip-rule="evenodd" d="M14.6644 1.66469C14.6781 1.76961 14.6694 1.89501 14.6606 2.02053C14.6483 2.26676 14.6166 2.50744 14.6379 2.67568C14.7548 3.69566 14.9076 4.91738 15.3415 5.85709C15.3854 5.95763 15.512 6.00559 15.6168 5.95612C15.7215 5.90677 15.7738 5.78823 15.7182 5.67496C15.31 4.78208 15.1757 3.61364 15.0526 2.62288C15.0371 2.44925 15.0737 2.15725 15.0892 1.90809C15.0963 1.69014 15.0807 1.49312 15.0079 1.34868C14.9723 1.26401 14.8415 1.17293 14.628 1.2284C14.3314 1.31344 13.6856 1.74306 13.6193 1.78055C12.9495 2.16202 12.346 2.48241 11.5522 2.32021C11.4435 2.30284 11.3347 2.37945 11.3008 2.48116C11.2785 2.5956 11.3569 2.71143 11.4658 2.72868C12.367 2.90954 13.0756 2.5863 13.8345 2.14639C13.8747 2.10941 14.2585 1.85024 14.5629 1.71109C14.5999 1.70052 14.6278 1.67491 14.6644 1.66469Z" fill="#F6C944"/>
<path fill-rule="evenodd" clip-rule="evenodd" d="M7.20499 10.0576C7.2593 9.98413 7.30179 9.89806 7.34414 9.81211C7.59382 9.37096 7.8908 8.86276 7.98579 8.35254C8.1057 7.67846 7.94464 7.19248 7.62519 6.8522C7.17521 6.37363 6.36224 6.20566 5.59276 6.34994C4.82773 6.49012 4.1044 6.92069 3.79164 7.56082C3.57401 7.99596 3.54594 8.53856 3.835 9.16519C4.15868 9.87742 4.78547 10.2638 5.52343 10.4304C5.80609 10.4991 6.08949 10.5202 6.38742 10.5279C6.21532 10.7568 6.04124 10.9875 5.86418 11.2209C5.26316 11.9618 4.55646 12.6591 3.8211 13.2653C2.8597 14.0794 1.79798 14.7039 0.614193 15.1354C0.511665 15.1828 0.456234 15.3043 0.493896 15.4106C0.531685 15.5167 0.651224 15.5711 0.765456 15.5364C1.99466 15.0866 3.10295 14.4428 4.10073 13.5952C4.84473 12.9576 5.58419 12.2535 6.19373 11.4813C6.44304 11.1579 6.6869 10.8396 6.91573 10.5116C7.56195 10.4573 8.19152 10.3008 8.67643 10.113C11.8783 8.81113 14.0217 4.70148 15.1273 1.5701C15.1678 1.46242 15.1145 1.34685 15.0044 1.30728C14.8941 1.26783 14.7769 1.32865 14.7365 1.43633C13.6651 4.46576 11.6186 8.46295 8.51665 9.71985C8.15183 9.86762 7.68838 9.98864 7.20499 10.0576ZM6.67423 10.0996C6.78693 9.94889 6.8871 9.78639 6.97511 9.61145C7.19516 9.19757 7.48391 8.744 7.57661 8.28287C7.66855 7.77546 7.56374 7.40193 7.32711 7.14986C6.94838 6.74668 6.29074 6.6472 5.67314 6.76917C5.03952 6.88239 4.42458 7.21327 4.17364 7.74954C4.00778 8.09007 3.99272 8.50334 4.21143 8.9833C4.48485 9.57735 5.01399 9.88897 5.61431 10.0178C5.95842 10.1005 6.31893 10.1211 6.67423 10.0996Z" stroke="#F6C944" stroke-width="0.5" mask="url(#path-1-outside-1_143_445)"/>
<path fill-rule="evenodd" clip-rule="evenodd" d="M14.6644 1.66469C14.6781 1.76961 14.6694 1.89501 14.6606 2.02053C14.6483 2.26676 14.6166 2.50744 14.6379 2.67568C14.7548 3.69566 14.9076 4.91738 15.3415 5.85709C15.3854 5.95763 15.512 6.00559 15.6168 5.95612C15.7215 5.90677 15.7738 5.78823 15.7182 5.67496C15.31 4.78208 15.1757 3.61364 15.0526 2.62288C15.0371 2.44925 15.0737 2.15725 15.0892 1.90809C15.0963 1.69014 15.0807 1.49312 15.0079 1.34868C14.9723 1.26401 14.8415 1.17293 14.628 1.2284C14.3314 1.31344 13.6856 1.74306 13.6193 1.78055C12.9495 2.16202 12.346 2.48241 11.5522 2.32021C11.4435 2.30284 11.3347 2.37945 11.3008 2.48116C11.2785 2.5956 11.3569 2.71143 11.4658 2.72868C12.367 2.90954 13.0756 2.5863 13.8345 2.14639C13.8747 2.10941 14.2585 1.85024 14.5629 1.71109C14.5999 1.70052 14.6278 1.67491 14.6644 1.66469Z" stroke="#F6C944" stroke-width="0.5" mask="url(#path-1-outside-1_143_445)"/>
</g>
</svg>
