<svg xmlns="http://www.w3.org/2000/svg" width="8" height="19" fill="none"><mask id="a" width="5" height="6" x="0" y="0" fill="#000" maskUnits="userSpaceOnUse"><path fill="#fff" d="M0 0h5v6H0z"/><path fill-rule="evenodd" d="M1.451 4.848a.544.544 0 0 0 .043-.089c.107-.31.16-.63.241-.946.23-.894.188-1.85-.145-2.71a.161.161 0 0 0-.3.116 4.14 4.14 0 0 1 .134 2.514c-.08.308-.131.62-.235.922-.015.045-.06.102-.095.157a.676.676 0 0 0-.084.165.219.219 0 0 0 .027.19.213.213 0 0 0 .12.085.258.258 0 0 0 .125-.001c.089-.02.275-.095.52-.193.4-.162.968-.388 1.504-.504.337-.073.66-.105.915-.04a.161.161 0 0 0 .08-.311c-.296-.076-.672-.049-1.063.036-.555.12-1.142.353-1.557.52l-.23.09Z" clip-rule="evenodd"/></mask><path fill="#C4B9FA" fill-rule="evenodd" d="M1.451 4.848a.544.544 0 0 0 .043-.089c.107-.31.16-.63.241-.946.23-.894.188-1.85-.145-2.71a.161.161 0 0 0-.3.116 4.14 4.14 0 0 1 .134 2.514c-.08.308-.131.62-.235.922-.015.045-.06.102-.095.157a.676.676 0 0 0-.084.165.219.219 0 0 0 .027.19.213.213 0 0 0 .12.085.258.258 0 0 0 .125-.001c.089-.02.275-.095.52-.193.4-.162.968-.388 1.504-.504.337-.073.66-.105.915-.04a.161.161 0 0 0 .08-.311c-.296-.076-.672-.049-1.063.036-.555.12-1.142.353-1.557.52l-.23.09Z" clip-rule="evenodd"/><path stroke="#C4B9FA" stroke-width=".5" d="M1.451 4.848a.544.544 0 0 0 .043-.089c.107-.31.16-.63.241-.946.23-.894.188-1.85-.145-2.71a.161.161 0 0 0-.3.116 4.14 4.14 0 0 1 .134 2.514c-.08.308-.131.62-.235.922-.015.045-.06.102-.095.157a.676.676 0 0 0-.084.165.219.219 0 0 0 .027.19.213.213 0 0 0 .12.085.258.258 0 0 0 .125-.001c.089-.02.275-.095.52-.193.4-.162.968-.388 1.504-.504.337-.073.66-.105.915-.04a.161.161 0 0 0 .08-.311c-.296-.076-.672-.049-1.063.036-.555.12-1.142.353-1.557.52l-.23.09Z" clip-rule="evenodd" mask="url(#a)"/><mask id="b" width="8" height="18" x="0" y="1" fill="#000" maskUnits="userSpaceOnUse"><path fill="#fff" d="M0 1h8v18H0z"/><path fill-rule="evenodd" d="M1.467 4.976c.332-1.564 1.125-2.395 2.036-2.602 1.372-.313 2.962.776 3.545 2.765C8.51 10.116 4.954 15.27 1.07 17.92a.161.161 0 0 0 .182.266c3.987-2.72 7.605-8.029 6.106-13.139-.641-2.182-2.42-3.331-3.926-2.988-1.007.23-1.913 1.121-2.28 2.85a.161.161 0 0 0 .315.066Z" clip-rule="evenodd"/></mask><path fill="#C4B9FA" fill-rule="evenodd" d="M1.467 4.976c.332-1.564 1.125-2.395 2.036-2.602 1.372-.313 2.962.776 3.545 2.765C8.51 10.116 4.954 15.27 1.07 17.92a.161.161 0 0 0 .182.266c3.987-2.72 7.605-8.029 6.106-13.139-.641-2.182-2.42-3.331-3.926-2.988-1.007.23-1.913 1.121-2.28 2.85a.161.161 0 0 0 .315.066Z" clip-rule="evenodd"/><path stroke="#C4B9FA" stroke-width=".5" d="M1.467 4.976c.332-1.564 1.125-2.395 2.036-2.602 1.372-.313 2.962.776 3.545 2.765C8.51 10.116 4.954 15.27 1.07 17.92a.161.161 0 0 0 .182.266c3.987-2.72 7.605-8.029 6.106-13.139-.641-2.182-2.42-3.331-3.926-2.988-1.007.23-1.913 1.121-2.28 2.85a.161.161 0 0 0 .315.066Z" clip-rule="evenodd" mask="url(#b)"/></svg>