<svg width="94" height="88" viewBox="0 0 94 88" fill="none" xmlns="http://www.w3.org/2000/svg">
<g id="Frame 1">
<path id="Vector" d="M88.7695 25.6927C86.2469 1.8061 56.4292 -2.96195 47.041 19.648C47.0232 19.6872 46.9697 19.6872 46.9555 19.648C37.5637 -2.96195 7.74595 1.8061 5.22699 25.6927C2.65102 50.0929 22.5355 71.0552 37.7027 79.5535C40.3534 81.0406 43.2251 82.0641 46.1004 82.4743C46.6954 82.5599 47.3046 82.5599 47.8996 82.4743C50.7749 82.0677 53.6466 81.0406 56.2973 79.5535C71.4645 71.0552 91.349 50.0893 88.773 25.6927H88.7695Z" fill="white" stroke="white" stroke-width="10" stroke-miterlimit="10"/>
<path id="Vector_2" d="M88.7695 25.6927C86.2469 1.8061 56.4292 -2.96196 47.041 19.648C47.0232 19.6872 46.9697 19.6872 46.9555 19.648C37.5637 -2.96196 7.74595 1.8061 5.22699 25.6927C2.65102 50.0929 22.5355 71.0552 37.7027 79.5535C40.3534 81.0406 43.2251 82.0641 46.1004 82.4743C46.6954 82.5599 47.3046 82.5599 47.8996 82.4743C50.7749 82.0677 53.6466 81.0406 56.2973 79.5535C71.4645 71.0552 91.349 50.0893 88.773 25.6927H88.7695Z" fill="white" stroke="#DF5A31" stroke-width="2.5" stroke-miterlimit="10"/>
</g>
</svg>
