<svg width="406" height="21" viewBox="0 0 406 21" fill="none" xmlns="http://www.w3.org/2000/svg">
<path id="Vector" fill-rule="evenodd" clip-rule="evenodd" d="M72.1796 7.89366C67.7472 8.72248 63.5871 9.92242 59.8356 11.6048C59.4271 11.7904 59.3031 12.0501 59.266 12.1614C59.2041 12.3593 59.2289 12.545 59.328 12.7182C59.3899 12.8295 59.489 12.9656 59.6995 13.0522C59.848 13.1141 60.2318 13.1635 60.7394 13.1511C61.6061 13.1387 62.9433 13.0398 63.5872 13.0398C65.791 13.0646 67.9948 13.0521 70.1986 13.0892C77.2188 13.2129 78.4444 13.3119 87.4703 13.2376C98.0066 13.151 108.568 13.0026 119.117 12.7799C85.5884 14.6355 52.1098 16.8003 18.8045 18.8167C18.4331 18.8415 18.1483 19.1632 18.1731 19.5343C18.1854 19.9178 18.5197 20.2024 18.8911 20.1776C96.6076 15.4768 175.178 9.93477 253.489 9.57603C257.352 9.66262 261.203 9.74916 265.041 9.83576C288.231 10.3801 311.433 11.0357 334.598 12.0501C342.138 12.3841 349.678 12.7552 357.231 13.1016C359.459 13.2005 361.7 13.2995 363.941 13.3985C365.749 13.4727 370.404 13.7449 371.06 13.7573C371.655 13.7696 371.803 13.2378 371.816 13.213C371.853 13.0398 371.828 12.8418 371.68 12.6563C371.642 12.6068 371.543 12.4708 371.32 12.4089C371.283 12.4089 371.11 12.3841 370.751 12.347C352.13 10.8254 333.459 9.77395 314.751 9.10594C317.264 9.13068 319.778 9.14311 322.291 9.16785C341.668 9.3163 361.094 9.84823 380.458 9.16785C384.865 9.01941 389.286 8.84616 393.681 8.63586C396.64 8.49978 404.254 8.67299 405.331 8.35136C405.827 8.21528 405.938 7.86887 405.95 7.69569C405.963 7.49776 405.926 7.27509 405.703 7.07716C405.604 6.9782 405.294 6.81746 404.712 6.69376C385.707 2.57439 363.471 3.73713 344.119 2.58667C291.561 -0.567799 239.189 1.53527 186.643 3.4527C141.291 5.11034 95.939 5.19691 50.6116 7.44834C34.0209 8.26479 16.9102 7.32469 0.554709 10.442C0.183275 10.5163 -0.0520454 10.8625 0.00986034 11.2336C0.0841472 11.6047 0.443231 11.8522 0.814665 11.778C17.0959 8.67302 34.1447 9.62551 50.6736 8.80906C57.8422 8.45032 65.0109 8.15344 72.1796 7.89366ZM212.396 8.80906C184.625 8.37609 156.854 8.15337 129.059 8.28945C109.992 8.37604 82.2084 4.75163 63.2652 11.6791C63.4014 11.6791 63.5127 11.6791 63.6118 11.6791C65.8156 11.7038 68.0196 11.679 70.2234 11.7285C77.2312 11.8522 78.4568 11.9511 87.4579 11.8769C110.474 11.679 133.553 11.1843 156.557 10.4173C175.191 9.79876 193.8 9.24203 212.396 8.80906ZM400.255 7.21322C382.29 4.07112 361.923 5.01141 344.032 3.94755C291.524 0.793075 239.189 2.896 186.693 4.81342C163.231 5.67935 139.781 6.1123 116.343 6.64423C120.838 6.81741 125.134 6.94109 129.059 6.92872C168.79 6.7308 208.508 7.26282 248.239 8.10401C272.915 7.7329 297.591 7.59682 322.304 7.79475C341.668 7.95556 361.056 8.47514 380.421 7.80713C384.816 7.65869 389.224 7.48543 393.619 7.27513C395.117 7.21328 397.828 7.22559 400.255 7.21322Z" fill="#DF5A31"/>
</svg>
