<svg width="88" height="82" viewBox="0 0 88 82" fill="none" xmlns="http://www.w3.org/2000/svg">
<g id="favorite">
<path id="Vector" d="M82.7859 24.2147C80.4436 2.03424 52.7557 -2.39324 44.0381 18.6017C44.0215 18.6381 43.9719 18.6381 43.9586 18.6017C35.2377 -2.39324 7.54981 2.03424 5.21077 24.2147C2.81881 46.872 21.2829 66.337 35.3668 74.2283C37.8282 75.6092 40.4948 76.5596 43.1646 76.9404C43.7171 77.0199 44.2829 77.0199 44.8354 76.9404C47.5052 76.5629 50.1718 75.6092 52.6332 74.2283C66.7171 66.337 85.1812 46.8687 82.7892 24.2147H82.7859Z" fill="#DF5A31" stroke="#DF5A31" stroke-width="10" stroke-miterlimit="10"/>
<path id="Vector_2" d="M82.7859 24.2147C80.4436 2.03424 52.7557 -2.39324 44.0381 18.6017C44.0215 18.6381 43.9719 18.6381 43.9586 18.6017C35.2377 -2.39324 7.54981 2.03424 5.21077 24.2147C2.81881 46.872 21.2829 66.337 35.3668 74.2283C37.8282 75.6092 40.4948 76.5596 43.1646 76.9404C43.7171 77.0199 44.2829 77.0199 44.8354 76.9404C47.5052 76.5629 50.1718 75.6092 52.6332 74.2283C66.7171 66.337 85.1812 46.8687 82.7892 24.2147H82.7859Z" fill="#DF5A31" stroke="black" stroke-width="2.5" stroke-miterlimit="10"/>
</g>
</svg>
