<svg width="57" height="55" viewBox="0 0 57 55" fill="none" xmlns="http://www.w3.org/2000/svg">
<g id="feedback">
<path id="Vector" d="M32.408 5.13025L37.1748 14.8118C37.7301 15.9392 38.8036 16.7212 40.0464 16.9012L50.7072 18.4527C53.8348 18.9078 55.0838 22.7598 52.8212 24.9692L45.1064 32.5034C44.2083 33.3805 43.7975 34.6466 44.0102 35.8857L45.831 46.5251C46.3657 49.6468 43.0956 52.0258 40.2983 50.5529L30.7626 45.53C29.652 44.9446 28.3245 44.9446 27.2138 45.53L17.6782 50.5529C14.8809 52.0258 11.6128 49.6468 12.1455 46.5251L13.9663 35.8857C14.1789 34.6466 13.7681 33.3826 12.8701 32.5034L5.15526 24.9692C2.89263 22.7598 4.14162 18.9078 7.26925 18.4527L17.93 16.9012C19.1728 16.7212 20.2443 15.9392 20.8017 14.8118L25.5685 5.13025C26.9661 2.28992 31.0083 2.28992 32.4059 5.13025H32.408Z" fill="#F6C944" stroke="#F6C944" stroke-width="5" stroke-miterlimit="10"/>
<path id="Vector_2" d="M32.408 5.13025L37.1748 14.8118C37.7301 15.9392 38.8036 16.7212 40.0464 16.9012L50.7072 18.4527C53.8349 18.9078 55.0838 22.7598 52.8212 24.9692L45.1064 32.5034C44.2083 33.3805 43.7975 34.6466 44.0102 35.8857L45.831 46.5251C46.3657 49.6468 43.0956 52.0258 40.2983 50.5529L30.7626 45.53C29.652 44.9446 28.3245 44.9446 27.2138 45.53L17.6782 50.5529C14.8809 52.0258 11.6128 49.6468 12.1455 46.5251L13.9663 35.8857C14.1789 34.6466 13.7681 33.3826 12.8701 32.5034L5.15526 24.9692C2.89263 22.7598 4.14162 18.9078 7.26925 18.4527L17.93 16.9012C19.1728 16.7212 20.2443 15.9392 20.8017 14.8118L25.5685 5.13025C26.9661 2.28992 31.0083 2.28992 32.4059 5.13025H32.408Z" fill="#F6C944" stroke="#0d0d0d" stroke-width="1.5" stroke-miterlimit="10"/>
</g>
</svg>
