<svg width="34" height="55" viewBox="0 0 34 55" fill="none" xmlns="http://www.w3.org/2000/svg">
<g id="help">
<path id="Vector" d="M16.7117 51.9999C19.3766 51.9999 21.5369 49.8427 21.5369 47.1818C21.5369 44.5209 19.3766 42.3638 16.7117 42.3638C14.0467 42.3638 11.8864 44.5209 11.8864 47.1818C11.8864 49.8427 14.0467 51.9999 16.7117 51.9999Z" fill="black" stroke="#995DF6" stroke-width="5" stroke-miterlimit="10"/>
<path id="Vector_2" d="M16.5246 39.4081C14.2411 39.4081 12.353 37.5972 12.2802 35.3022C12.1495 31.2971 13.2035 28.0156 15.5946 24.9771C16.7331 23.5297 17.4198 22.8374 18.0834 22.1682C18.4623 21.7849 18.8214 21.423 19.3145 20.8613L19.3559 20.815C20.5721 19.4304 21.8281 17.9962 21.9058 17.1304C22.0117 15.9342 21.7288 15.0023 20.9875 14.1051C20.8038 13.8837 19.0944 11.9555 15.78 12.6379C14.8699 12.8246 13.8274 13.1534 12.9901 14.1629C12.5367 14.7098 12.2868 15.2815 12.2008 15.5029C11.6861 16.8181 11.5405 17.7781 11.4776 18.3861C11.2327 20.7175 9.14115 22.4094 6.8063 22.1633C4.47146 21.9187 2.77865 19.8302 3.02355 17.4989C3.20392 15.7805 3.61595 14.1166 4.28447 12.4115C4.64355 11.4961 5.30876 10.1181 6.44392 8.7484C9.3 5.30505 12.8842 4.56813 14.064 4.32524C20.2743 3.04803 25.0995 5.7462 27.5419 8.69882C29.698 11.3045 30.6776 14.4801 30.3748 17.8822C30.0521 21.5056 27.7669 24.1096 25.7515 26.4063L25.7101 26.4526C25.0465 27.2093 24.5584 27.7017 24.1265 28.1379C23.5639 28.7063 23.1188 29.1541 22.2798 30.2198C21.2969 31.4689 20.7028 32.7098 20.7773 35.0263C20.8534 37.3692 19.0133 39.3288 16.6669 39.4048C16.6206 39.4048 16.5726 39.4065 16.5263 39.4065L16.5246 39.4081Z" fill="black" stroke="#995DF6" stroke-width="5" stroke-miterlimit="10"/>
<path id="Vector_3" d="M16.5246 39.4081C14.2411 39.4081 12.353 37.5972 12.2802 35.3022C12.1495 31.2971 13.2035 28.0156 15.5946 24.9771C16.7331 23.5297 17.4198 22.8374 18.0834 22.1682C18.4623 21.7849 18.8214 21.423 19.3145 20.8613L19.3559 20.815C20.5721 19.4304 21.8281 17.9962 21.9058 17.1304C22.0117 15.9342 21.7288 15.0023 20.9875 14.1051C20.8038 13.8837 19.0944 11.9555 15.78 12.6379C14.8699 12.8246 13.8274 13.1534 12.9901 14.1629C12.5367 14.7098 12.2868 15.2815 12.2008 15.5029C11.6861 16.8181 11.5405 17.7781 11.4776 18.3861C11.2327 20.7175 9.14115 22.4094 6.8063 22.1633C4.47146 21.9187 2.77865 19.8302 3.02355 17.4989C3.20392 15.7805 3.61595 14.1166 4.28447 12.4115C4.64355 11.4961 5.30876 10.1181 6.44392 8.7484C9.3 5.30505 12.8842 4.56813 14.064 4.32524C20.2743 3.04803 25.0995 5.7462 27.5419 8.69882C29.698 11.3045 30.6776 14.4801 30.3748 17.8822C30.0521 21.5056 27.7669 24.1096 25.7515 26.4063L25.7101 26.4526C25.0465 27.2093 24.5584 27.7017 24.1265 28.1379C23.5639 28.7063 23.1188 29.1541 22.2798 30.2198C21.2969 31.4689 20.7028 32.7098 20.7773 35.0263C20.8534 37.3692 19.0133 39.3288 16.6669 39.4048C16.6206 39.4048 16.5726 39.4065 16.5263 39.4065L16.5246 39.4081Z" fill="#995DF6" stroke="black" stroke-width="1.5" stroke-miterlimit="10"/>
<path id="Vector_4" d="M16.7117 51.9999C19.3766 51.9999 21.5369 49.8427 21.5369 47.1818C21.5369 44.5209 19.3766 42.3638 16.7117 42.3638C14.0467 42.3638 11.8864 44.5209 11.8864 47.1818C11.8864 49.8427 14.0467 51.9999 16.7117 51.9999Z" fill="#995DF6" stroke="black" stroke-width="1.5" stroke-miterlimit="10"/>
</g>
</svg>
