<svg width="111" height="94" viewBox="0 0 111 94" fill="none" xmlns="http://www.w3.org/2000/svg">
<g id="logout">
<path id="Vector" d="M104.991 60.9931C105.131 56.3819 99.3272 55.8681 100.317 51.4842C100.786 49.4043 106.888 44.9705 102.543 40.2845C100.569 38.1548 95.758 38.846 92.3161 38.7277C87.9151 38.5782 83.5328 37.8901 79.3646 36.4703C65.5566 31.7718 57.8502 21.8394 50.8763 13.909C46.9751 9.47212 44.2656 7.26145 39.9453 5.91325C33.0956 3.7742 27.3322 5.94438 24.7996 6.94074C23.4743 7.46383 16.3639 10.4249 11.9319 18.0221C7.3168 25.9338 8.53653 34.0292 9.42727 39.3846C10.048 43.1303 11.1063 46.602 12.4347 49.8059H12.4254C8.35652 51.2102 3.75382 53.9906 5.31495 58.1535C6.23984 60.6195 8.94311 60.4451 10.7432 60.3891C14.5266 60.2739 16.8574 60.414 18.7878 61.0056C25.0262 69.5182 32.2421 74.6339 34.2502 76.0568C46.8602 84.9898 59.2562 86.9576 66.7049 88.0536C72.8998 88.9659 78.6694 89.162 83.9766 88.8818L84.1101 88.8663C85.9599 88.639 87.2386 87.1133 87.341 85.4164C87.4062 84.3608 88.0796 83.4268 89.1163 83.2306C92.5582 82.5767 96.177 82.4273 97.3099 79.5223C98.5699 76.2872 96.236 74.2634 95.7953 72.937C94.1348 67.9427 104.777 68.086 104.994 60.99L104.991 60.9931Z" fill="white" stroke="white" stroke-width="10" stroke-miterlimit="10"/>
<path id="Vector_2" d="M12.4222 49.8062C8.35335 51.2074 3.75065 53.9909 5.31178 58.1507C6.23666 60.6167 8.93993 60.4423 10.74 60.3863C14.5234 60.2711 16.8542 60.4112 18.7847 61.0028L20.262 60.1715L14.6227 49.0527L12.4222 49.8062V49.8062Z" fill="white" stroke="black" stroke-width="3" stroke-miterlimit="10"/>
<path id="Vector_3" d="M92.3161 38.7247C87.9151 38.5753 83.5359 37.8872 79.3646 36.4674C65.5565 31.7689 57.8502 21.8396 50.8763 13.9061C46.975 9.46919 44.2656 7.25852 39.9453 5.91032C33.0956 3.77127 27.3321 5.94145 24.7995 6.93781C23.4743 7.4609 16.3639 10.4219 11.9319 18.0192C7.31676 25.9309 8.53959 34.0263 9.42723 39.3817C13.015 61.012 30.8982 73.6782 34.2532 76.0539C46.8633 84.9869 59.2592 86.9547 66.708 88.0507C72.9028 88.963 78.6694 89.1591 83.9797 88.8789L84.1131 88.8633C85.9629 88.636 87.2416 87.1104 87.344 85.4134C87.4092 84.3579 88.0858 83.4238 89.1193 83.2277C92.5612 82.5738 96.1801 82.4244 97.3129 79.5194C98.573 76.2843 96.2391 74.2605 95.7983 72.9341C94.1379 67.9398 104.78 68.083 104.998 60.9871C105.137 56.3758 99.3334 55.8621 100.323 51.4781C100.792 49.3982 106.894 44.9613 102.549 40.2784C100.575 38.1487 95.7642 38.8399 92.3223 38.7216L92.3161 38.7247Z" fill="white" stroke="black" stroke-width="3" stroke-miterlimit="10"/>
<path id="Vector_4" d="M13.8885 42.4587C16.0326 42.1583 17.295 38.4977 16.7083 34.2826C16.1215 30.0675 13.9077 26.894 11.7636 27.1944C9.61954 27.4948 8.35707 31.1553 8.94383 35.3704C9.53059 39.5855 11.7444 42.7591 13.8885 42.4587Z" fill="black"/>
<path id="Vector_5" d="M31.8701 41.4078C34.2673 40.5391 34.9546 36.346 33.405 32.0423C31.8555 27.7386 28.6559 24.9539 26.2587 25.8226C23.8614 26.6913 23.1742 30.8844 24.7238 35.1881C26.2733 39.4918 29.4728 42.2764 31.8701 41.4078Z" fill="black"/>
<path id="Vector_6" d="M25.3384 61.9726C27.378 61.437 27.9148 56.7237 26.5374 51.4453C25.16 46.1669 22.39 42.3221 20.3504 42.8577C18.3108 43.3934 17.774 48.1067 19.1514 53.3851C20.5287 58.6635 23.2988 62.5083 25.3384 61.9726Z" fill="black"/>
<g id="Vector_7">
<path d="M47.5492 45.0236C46.3481 44.9707 44.6628 45.0921 42.7509 45.3007C39.2097 45.6837 29.1818 48.8098 31.3792 54.6696C32.3041 57.1356 35.0074 56.9612 36.8075 56.9052C43.6634 56.6934 45.7397 57.3317 49.3431 59.9441" fill="white"/>
<path d="M47.5492 45.0236C46.3481 44.9707 44.6628 45.0921 42.7509 45.3007C39.2097 45.6837 29.1818 48.8098 31.3792 54.6696C32.3041 57.1356 35.0074 56.9612 36.8075 56.9052C43.6634 56.6934 45.7397 57.3317 49.3431 59.9441" stroke="black" stroke-width="3" stroke-miterlimit="10"/>
</g>
</g>
</svg>
