<svg width="406" height="36" viewBox="0 0 406 36" fill="none" xmlns="http://www.w3.org/2000/svg">
<path id="Vector" fill-rule="evenodd" clip-rule="evenodd" d="M242.978 16.4426C188.947 17.082 134.889 19.6185 81.0929 24.1525C55.5165 26.3085 25.8148 26.039 1.00892 33.3894C-0.227097 33.7593 0.00829775 34.869 0.0350513 34.98C0.0885583 35.2072 0.313345 35.9628 1.29787 35.9998C1.40489 36.0051 2.15929 35.8994 2.44822 35.8624C9.77333 34.9112 17.0717 33.8016 24.4022 32.9033C49.711 29.7908 75.0947 27.4393 100.516 25.3785C134.257 22.6412 168.288 21.1827 202.12 20.0413C220.639 19.4177 239.602 20.2473 258.18 18.958C265.002 18.921 271.824 18.9158 278.646 18.9369C307.165 19.0373 335.652 20.1048 364.124 21.5685C373.279 22.0388 380.261 22.5461 389.224 22.8896C392.627 23.0217 398.026 23.1115 401.782 23.1697C402.333 23.1802 403.74 23.1907 404.323 23.196C404.382 23.2066 404.441 23.2066 404.505 23.2066C404.73 23.2066 404.837 23.1907 404.858 23.1907C406.132 23.0057 406.014 21.8168 405.982 21.6371C405.977 21.6002 405.784 20.5961 404.687 20.5591C404.425 20.5486 402.547 20.5381 401.825 20.5275C398.09 20.4694 392.712 20.3795 389.325 20.2527C380.379 19.9092 373.402 19.402 364.263 18.9317C335.749 17.4679 307.219 16.3952 278.657 16.2948C275.168 16.2842 271.674 16.2789 268.185 16.2842C268.068 15.983 267.806 15.6448 267.228 15.4969C266.687 15.3595 262.819 15.2379 261.326 15.1164C250.277 14.2181 250.603 14.2603 238.446 13.5258C220.035 12.4108 217.231 12.1571 198.081 11.6868C163.296 10.8307 128.495 10.8995 93.7045 10.9841C76.5287 11.0316 58.1383 12.1783 40.7004 10.0381C46.447 9.37233 52.2151 8.88618 57.9725 8.33133C77.6309 6.43956 97.3055 5.26639 117.044 4.44204C164.393 2.46571 211.816 1.67841 259.148 4.3734C249.073 4.46852 239.003 4.69039 228.927 4.83307C187.914 5.42491 146.505 4.98108 105.578 8.05125C104.845 8.10938 104.294 8.74346 104.347 9.4674C104.401 10.1966 105.048 10.7409 105.781 10.6881C146.655 7.61793 188.005 8.06706 228.965 7.47521C244.182 7.25856 259.394 6.86756 274.612 6.98381C279.834 7.02609 285.056 7.21635 290.279 7.27976C291.311 7.29562 293.971 7.49642 294.35 7.41187C295.191 7.22692 295.372 6.6139 295.426 6.3127C295.453 6.13303 295.538 5.09731 294.254 4.72741C285.49 2.20152 269.315 2.31777 260.796 1.82105C212.881 -0.979625 164.869 -0.197571 116.932 1.79989C97.145 2.62953 77.4223 3.80799 57.7103 5.70505C50.8239 6.36559 43.9215 6.93629 37.0619 7.81348C35.9543 7.95616 33.4663 8.16228 32.2624 8.37894C31.7594 8.46877 31.3955 8.59551 31.235 8.68534C30.609 9.0341 30.4966 9.5414 30.4966 9.88488C30.4913 10.1491 30.6037 11.0791 31.9146 11.3328C51.8887 15.1956 73.6233 13.679 93.7098 13.6262C128.479 13.5417 163.253 13.4729 198.016 14.3289C217.118 14.7992 219.911 15.0477 238.286 16.1627C240.1 16.2684 241.635 16.3634 242.978 16.4426Z" fill="#DF5A31"/>
</svg>
