<svg width="124" height="82" viewBox="0 0 124 82" fill="none" xmlns="http://www.w3.org/2000/svg">
<g id="retweet">
<path id="Vector" d="M51.6291 55.9728H42.207C40.3647 55.9728 38.8707 54.4787 38.8707 52.6364V35.9659C38.8707 34.6881 39.907 33.6518 41.1848 33.6518H55.6283C56.9566 33.6518 57.6419 32.0651 56.732 31.099L32.6782 5.47813C32.08 4.84062 31.0662 4.84062 30.468 5.47813L6.41421 31.099C5.5043 32.0679 6.19237 33.6518 7.51792 33.6518H21.9614C23.2392 33.6518 24.2755 34.6881 24.2755 35.9659V62.8084C24.2755 67.3945 27.9938 71.1128 32.5799 71.1128H64.8004C66.0586 71.1128 66.7691 69.6665 65.9996 68.6695L56.527 58.3768C55.3531 56.8574 53.5417 55.9672 51.6207 55.9672L51.6291 55.9728Z" fill="black" stroke="#4DA760" stroke-width="10" stroke-miterlimit="10"/>
<path id="Vector_2" d="M72.4448 26.0272H81.867C83.7093 26.0272 85.2033 27.5213 85.2033 29.3636V46.0341C85.2033 47.3119 84.167 48.3482 82.8892 48.3482H68.4457C67.1173 48.3482 66.4321 49.9349 67.342 50.901L91.3958 76.5219C91.994 77.1594 93.0078 77.1594 93.606 76.5219L117.66 50.901C118.57 49.9321 117.882 48.3482 116.556 48.3482H102.113C100.835 48.3482 99.7985 47.3119 99.7985 46.0341V19.1916C99.7985 14.6055 96.0802 10.8872 91.4941 10.8872H59.2735C58.0154 10.8872 57.3049 12.3335 58.0744 13.3305L67.547 23.6232C68.7209 25.1426 70.5323 26.0328 72.4533 26.0328L72.4448 26.0272Z" fill="black" stroke="#4DA760" stroke-width="10" stroke-miterlimit="10"/>
<path id="Vector_3" d="M72.4448 26.0272H81.867C83.7093 26.0272 85.2033 27.5213 85.2033 29.3636V46.0341C85.2033 47.3119 84.167 48.3482 82.8892 48.3482H68.4457C67.1173 48.3482 66.4321 49.9349 67.342 50.901L91.3958 76.5219C91.994 77.1594 93.0078 77.1594 93.606 76.5219L117.66 50.901C118.57 49.9321 117.882 48.3482 116.556 48.3482H102.113C100.835 48.3482 99.7985 47.3119 99.7985 46.0341V19.1916C99.7985 14.6055 96.0802 10.8872 91.4941 10.8872H59.2735C58.0154 10.8872 57.3049 12.3335 58.0744 13.3305L67.547 23.6232C68.7209 25.1426 70.5323 26.0328 72.4533 26.0328L72.4448 26.0272Z" fill="#4DA760" stroke="black" stroke-width="2.5" stroke-miterlimit="10"/>
<path id="Vector_4" d="M51.6291 55.9728H42.207C40.3647 55.9728 38.8707 54.4787 38.8707 52.6364V35.9659C38.8707 34.6881 39.907 33.6518 41.1848 33.6518H55.6283C56.9566 33.6518 57.6419 32.0651 56.732 31.099L32.6782 5.47813C32.08 4.84062 31.0662 4.84062 30.468 5.47813L6.41421 31.099C5.5043 32.0679 6.19237 33.6518 7.51792 33.6518H21.9614C23.2392 33.6518 24.2755 34.6881 24.2755 35.9659V62.8084C24.2755 67.3945 27.9938 71.1128 32.5799 71.1128H64.8004C66.0586 71.1128 66.7691 69.6665 65.9996 68.6695L56.527 58.3768C55.3531 56.8574 53.5417 55.9672 51.6207 55.9672L51.6291 55.9728Z" fill="#4DA760" stroke="black" stroke-width="2.5" stroke-miterlimit="10"/>
</g>
</svg>
