<svg width="69" height="75" viewBox="0 0 69 75" fill="none" xmlns="http://www.w3.org/2000/svg">
<path fill-rule="evenodd" clip-rule="evenodd" d="M5.98102 25.6955C11.8121 19.3338 15.5679 12.1899 19.8653 4.85208C20.7044 3.41894 20.223 1.58226 18.7952 0.743859C17.3665 -0.0950201 15.5252 0.390687 14.6853 1.82335C10.6106 8.78143 7.09419 15.6004 1.55687 21.6441C0.436558 22.8663 0.518103 24.7691 1.74144 25.8832C2.95911 27.0055 4.86158 26.9182 5.98102 25.6955Z" fill="#5452F6"/>
<path fill-rule="evenodd" clip-rule="evenodd" d="M13.5446 48.348C31.9454 43.8496 51.3945 35.7527 67.4414 25.6115C68.8419 24.725 69.2617 22.8685 68.3755 21.4716C67.4894 20.0746 65.6362 19.6532 64.2356 20.5397C48.7195 30.3445 29.9095 38.1756 12.1204 42.5186C10.5107 42.9144 9.524 44.5403 9.91816 46.1468C10.3123 47.7533 11.935 48.7438 13.5446 48.348Z" fill="#5452F6"/>
<path fill-rule="evenodd" clip-rule="evenodd" d="M9.94976 62.2943C20.1547 70.2845 33.4457 73.4545 46.0896 74.5719C47.742 74.7124 49.1988 73.492 49.3421 71.8491C49.4894 70.1969 48.2671 68.7414 46.6195 68.5921C35.1021 67.5783 22.9441 64.846 13.6489 57.5702C12.3451 56.5489 10.4569 56.7809 9.4384 58.0816C8.41902 59.3818 8.64688 61.2734 9.94976 62.2943Z" fill="#5452F6"/>
</svg>
