<svg width="113" height="74" viewBox="0 0 113 74" fill="none" xmlns="http://www.w3.org/2000/svg">
<g id="share">
<path id="Vector" d="M106.223 5.01811C106.21 5.01811 106.196 5.02074 106.186 5.02337L6.74498 27.8909C4.61148 28.3953 4.59051 31.4347 6.71877 31.9653L28.958 37.5318C29.1493 37.5791 29.3459 37.5949 29.5425 37.587V37.5922L29.6421 37.7026L39.4997 67.0561C39.6963 67.6419 40.1078 68.0622 40.6005 68.2881L40.5874 69L40.6005 68.2907C41.4052 68.6611 42.4247 68.5166 43.0774 67.7443L56.7538 51.5702L76.089 60.7829C77.1269 61.2768 78.3718 60.8617 78.9065 59.8398L107.025 6.07152C107.329 5.49359 106.789 4.88676 106.22 5.01811H106.223ZM104.577 5.87976L104.92 5.73526L104.705 5.86137L104.577 5.88237V5.87976Z" fill="#0d0d0d" stroke="#EF8B7C" stroke-width="10" stroke-miterlimit="10"/>
<g id="Vector_2">
<path d="M56.6201 51.8279L42.9436 68.002C41.89 69.2472 39.8849 68.8636 39.3633 67.3164L29.5057 37.9629L35.652 27.6626L73.2844 16.309L101.819 6.74951L102.438 11.2153L48.1516 43.6712" fill="#EF8B7C"/>
<path d="M56.6201 51.8279L42.9436 68.002C41.89 69.2472 39.8849 68.8636 39.3633 67.3164L29.5057 37.9629L35.652 27.6626L73.2844 16.309L101.819 6.74951L102.438 11.2153L48.1516 43.6712" stroke="#0d0d0d" stroke-width="2.5" stroke-miterlimit="10"/>
</g>
<path id="Vector_3" d="M105.874 5.3572L43.3473 41.785C41.8586 42.6519 41.9477 44.8402 43.5046 45.581L75.9526 61.0406C76.9906 61.5344 78.2355 61.1194 78.7702 60.0975L106.888 6.32917C107.229 5.67769 106.508 4.9868 105.874 5.3572Z" fill="#EF8B7C" stroke="#0d0d0d" stroke-width="2.5" stroke-miterlimit="10"/>
<g id="Vector_4">
<path d="M40.4617 68.5507C40.4617 68.5507 41.6464 68.5507 41.7538 66.7092L42.2833 43.6709" fill="#EF8B7C"/>
<path d="M40.4617 68.5507C40.4617 68.5507 41.6464 68.5507 41.7538 66.7092L42.2833 43.6709" stroke="#0d0d0d" stroke-width="2.5" stroke-miterlimit="10"/>
</g>
<path id="Vector_5" d="M6.5851 32.2282C4.45685 31.6949 4.47781 28.6582 6.61131 28.1538L106.052 5.28624C106.147 5.26259 106.453 5.28623 106.364 5.32826L30.1558 37.6896C29.7365 37.8709 29.2673 37.9076 28.8243 37.7973L6.5851 32.2308V32.2282Z" fill="#EF8B7C" stroke="#0d0d0d" stroke-width="2.5" stroke-miterlimit="10"/>
</g>
</svg>
