<svg width="92" height="71" viewBox="0 0 92 71" fill="none" xmlns="http://www.w3.org/2000/svg">
<g id="Vector">
<path d="M15.004 24.4572C18.8661 24.1181 21.7222 20.7123 21.383 16.8502C21.0439 12.9881 17.638 10.1322 13.7759 10.4713C9.91375 10.8105 7.05785 14.2162 7.39699 18.0784C7.73614 21.9405 11.1419 24.7964 15.004 24.4572Z" fill="#F6C944"/>
<path d="M43.3007 14.4762C47.0873 14.1437 49.8875 10.8045 49.555 7.01782C49.2225 3.23117 45.8832 0.431104 42.0965 0.763618C38.3099 1.09613 35.5098 4.43532 35.8423 8.22196C36.1748 12.0086 39.514 14.8087 43.3007 14.4762Z" fill="#F6C944"/>
<path fill-rule="evenodd" clip-rule="evenodd" d="M4.79837 68.9081C17.0182 34.3193 54.0503 19.9021 87.9415 35.5441C89.0698 36.065 90.4162 35.5873 90.9498 34.4899C91.4821 33.3737 90.9995 32.0494 89.8713 31.5285C53.5431 14.7448 13.3586 30.2185 0.674605 67.098C0.165291 68.2125 0.676445 69.5349 1.81478 70.0362C2.95172 70.5186 4.28906 70.0226 4.79837 68.9081Z" fill="#F6C944"/>
</g>
</svg>
