<svg width="100" height="53" viewBox="0 0 100 53" fill="none" xmlns="http://www.w3.org/2000/svg">
<g id="Vector">
<path fill-rule="evenodd" clip-rule="evenodd" d="M94.6785 9.26049C75.9099 44.1604 38.4175 58.3492 3.59528 38.7013C2.43603 38.0471 0.965988 38.4561 0.311743 39.6011C-0.342503 40.7664 0.0664444 42.2385 1.22569 42.8927C38.5504 63.9717 78.8049 48.9446 98.9229 11.5503C99.5526 10.385 99.1131 8.91271 97.9416 8.27891C96.7701 7.66555 95.3082 8.09511 94.6785 9.26049Z" fill="#F6C944"/>
<path d="M32.8992 21.9427C36.7762 21.9427 39.9192 18.7998 39.9192 14.9228C39.9192 11.0458 36.7762 7.90297 32.8992 7.90297C29.0222 7.90297 25.8793 11.0458 25.8793 14.9228C25.8793 18.7998 29.0222 21.9427 32.8992 21.9427Z" fill="#F6C944"/>
<path d="M61.9605 14.4753C65.7617 14.4753 68.8433 11.3938 68.8433 7.59262C68.8433 3.79141 65.7617 0.709961 61.9605 0.709961C58.1593 0.709961 55.0778 3.79141 55.0778 7.59262C55.0778 11.3938 58.1593 14.4753 61.9605 14.4753Z" fill="#F6C944"/>
</g>
</svg>
