<svg width="100" height="51" viewBox="0 0 100 51" fill="none" xmlns="http://www.w3.org/2000/svg">
<g id="smiley">
<path fill-rule="evenodd" clip-rule="evenodd" d="M94.6786 7.46972C75.9099 42.3696 38.4176 56.5584 3.59534 36.9106C2.43609 36.2563 0.966049 36.6654 0.311804 37.8103C-0.342442 38.9757 0.0665054 40.4477 1.22575 41.1019C38.5505 62.1809 78.8049 47.1538 98.923 9.75957C99.5527 8.59419 99.1132 7.12194 97.9417 6.48814C96.7701 5.87478 95.3083 6.30434 94.6786 7.46972Z" fill="#FFE499"/>
<path d="M32.8992 21.9427C36.7762 21.9427 39.9192 18.7998 39.9192 14.9228C39.9192 11.0458 36.7762 7.90295 32.8992 7.90295C29.0222 7.90295 25.8793 11.0458 25.8793 14.9228C25.8793 18.7998 29.0222 21.9427 32.8992 21.9427Z" fill="#FFE499"/>
<path d="M61.9605 14.4753C65.7618 14.4753 68.8433 11.3938 68.8433 7.59262C68.8433 3.79141 65.7618 0.709961 61.9605 0.709961C58.1593 0.709961 55.0779 3.79141 55.0779 7.59262C55.0779 11.3938 58.1593 14.4753 61.9605 14.4753Z" fill="#FFE499"/>
</g>
</svg>
