<svg width="65" height="69" viewBox="0 0 65 69" fill="none" xmlns="http://www.w3.org/2000/svg">
<path id="Vector" fill-rule="evenodd" clip-rule="evenodd" d="M25.7274 13.7945C25.5399 12.682 25.3986 11.5822 25.3074 10.4822C25.1699 8.83217 25.2549 7.16955 25.2061 5.51955C25.1849 4.81955 25.1011 2.99458 25.1349 2.73208C25.4411 0.444578 27.2874 0.0945352 27.8274 0.0320352C28.0886 -0.00546475 30.7711 -0.305331 31.3499 2.66967C32.0599 6.30717 32.2874 9.96962 32.0361 13.5571C32.6224 16.6071 33.6249 19.6446 34.9486 22.3946C40.2161 33.3321 50.2536 34.3946 61.1286 34.2946C62.8011 34.2696 64.1899 35.5821 64.2774 37.2446C64.3649 38.9196 63.1199 40.3696 61.4549 40.5196C55.3762 41.1071 44.5911 45.9821 40.8623 51.0571C40.0823 52.1196 39.6286 54.6822 39.0286 57.1947C38.1911 60.6822 37.1949 64.1321 36.0786 65.5821C35.9111 65.8071 33.8749 68.1072 33.2674 68.4447C31.8074 69.2447 30.6386 68.7821 29.9749 68.3571C29.3111 67.9321 28.5599 67.0946 28.2599 65.7071C27.9461 64.2571 28.2111 61.282 28.1624 60.6445C27.9849 58.332 27.5224 53.7946 26.5787 49.8946C26.0699 47.7946 25.5274 45.8571 24.6299 44.8946C21.3074 41.3321 15.9949 41.8571 11.5211 42.4446C11.0074 42.5071 10.4937 42.5821 9.98115 42.6446C8.1599 43.1821 6.2261 43.5821 4.18235 43.8196C1.0961 44.1821 0.588637 41.3446 0.561137 41.1571C0.503637 40.7446 0.289864 38.6196 2.61611 37.7696C2.86986 37.6821 4.74238 37.2696 5.46363 37.1071C6.46863 36.8821 7.48486 36.7071 8.50486 36.5446C19.0411 33.2696 24.7636 24.0695 25.7274 13.7945ZM29.3436 25.1572C33.3211 33.3822 39.3574 37.3571 46.5124 39.1571H46.5111C42.0436 41.4946 37.9799 44.4197 35.8261 47.3572C35.0086 48.4697 34.2586 50.7071 33.5824 53.2196C33.2161 50.8821 32.7212 48.3945 32.0674 46.2695C31.3237 43.8445 30.3224 41.8322 29.2049 40.6322C27.0474 38.3197 24.3398 37.0321 21.4286 36.3946C24.9136 33.3071 27.5561 29.4572 29.3436 25.1572Z" fill="#DF5A31"/>
</svg>
