<svg width="126" height="106" viewBox="0 0 126 106" fill="none" xmlns="http://www.w3.org/2000/svg">
<path id="Vector" fill-rule="evenodd" clip-rule="evenodd" d="M74.4303 25.3108C72.1214 23.4371 69.5677 21.8076 66.9241 20.4829C61.7535 17.8915 53.9911 15.559 46.8038 15.493C41.8771 15.4477 37.2229 16.4739 33.7855 19.1166C27.2382 24.1501 25.89 32.8448 27.7607 41.879C29.1252 48.4679 32.1888 55.2279 36.058 60.7782C31.6629 58.2798 25.9796 55.9624 20.4604 55.3922C14.2735 54.7483 8.30034 56.2742 4.40112 61.9554C-3.74719 73.8307 0.333369 85.3204 9.18514 93.614C17.8812 101.76 31.217 106.76 41.742 105.905C42.2985 105.858 42.7131 105.372 42.6676 104.819C42.6221 104.265 42.1337 103.853 41.5775 103.9C31.549 104.711 18.8573 99.9122 10.5718 92.1485C2.4424 84.5323 -1.41199 73.995 6.07129 63.0923C9.50569 58.0886 14.801 56.8243 20.2508 57.391C25.9203 57.9813 31.7654 60.5267 36.0556 63.109C37.2175 63.8066 38.3895 64.4975 39.5521 65.2051C42.6703 68.6828 46.0888 71.3021 49.4454 72.5697C50.2789 72.8816 50.6625 72.3384 50.7626 72.1807C50.8995 71.9661 51.0319 71.6207 50.8112 71.1746C50.7697 71.0908 50.6676 70.9331 50.4859 70.7588C50.2375 70.524 49.6843 70.0914 49.4548 69.8801C48.5076 69.0014 47.4691 68.1932 46.4471 67.4084C44.6708 66.0401 42.7839 64.8228 40.8686 63.6523C40.5946 63.3404 40.3236 63.0252 40.0553 62.7033C35.2537 56.9249 31.3168 49.0806 29.7413 41.4732C28.0391 33.2523 29.0645 25.289 35.0222 20.7089C38.1232 18.3248 42.3406 17.4642 46.7852 17.5052C53.6547 17.5682 61.0726 19.8031 66.0143 22.2798C69.0328 23.7926 71.9292 25.722 74.4458 27.9713C75.2811 28.7178 76.0428 29.565 76.7733 30.4131C76.8535 30.5063 76.964 30.6442 77.0871 30.8021C77.4059 31.276 77.743 31.7324 78.0986 32.1701C78.286 32.4005 78.4141 32.4826 78.4374 32.4974C79.0485 32.8861 79.483 32.5598 79.6677 32.3908C79.7226 32.3405 80.2774 31.8005 79.8264 31.0902C79.7347 30.9463 79.1637 30.1763 78.7087 29.5965C75.3353 24.5402 74.285 17.424 75.7749 11.648C76.7197 7.98642 78.6912 4.85745 81.8155 3.22455C83.8932 2.13896 86.4704 1.72579 89.5623 2.21912C97.019 3.409 103.265 7.64234 108.823 12.8539C114.509 18.1853 119.475 24.5452 124.234 29.8668C124.604 30.2816 125.244 30.3189 125.661 29.9496C126.078 29.5807 126.115 28.9442 125.744 28.5294C120.95 23.1665 115.94 16.7623 110.21 11.3894C104.352 5.89709 97.7413 1.48634 89.8826 0.232401C86.2854 -0.341748 83.2922 0.180099 80.875 1.44309C77.258 3.33322 74.9096 6.90855 73.8161 11.1476C72.6735 15.5775 72.9104 20.7263 74.4303 25.3108Z" fill="#C4B9FA"/>
</svg>
