<svg xmlns="http://www.w3.org/2000/svg" width="41" height="4" fill="none"><path fill="#EF8B7C" stroke="#EF8B7C" stroke-width=".25" d="M13.015.968C10.88.958 8.747.948 6.621.94h-.107a.301.301 0 0 1-.159-.047.197.197 0 0 1-.094-.165.199.199 0 0 1 .097-.164.3.3 0 0 1 .16-.044l.756.003c4.811.02 9.65.04 14.473.085 4.812-.107 9.678-.033 14.237.414a.776.776 0 0 1 .138.026.187.187 0 0 1 .027.011c.041.02.08.051.103.097a.178.178 0 0 1 .014.123.202.202 0 0 1-.067.106.29.29 0 0 1-.187.064M13.015.969 4.72 1.972c2.473-.24 4.961-.39 7.455-.536 3.092-.181 6.318-.337 9.57-.41 1.163.011 2.322.022 3.481.036 2.508.03 5.028.119 7.531.237l.006-.125M13.015.968l-.88.05c-2.497.147-4.995.298-7.478.538-.289.028-.581.052-.875.077-.494.04-.99.082-1.478.142L13.015.968Zm22.997.48c-.075.003-.488-.017-.782-.03-.083-.005-.157-.008-.211-.01l.006-.126m.987.167-.003-.125.004.125Zm-.987-.167-.006.125c-.603-.026-1.207-.056-1.81-.085l-.452-.022.006-.125m2.262.107c-.604-.026-1.207-.055-1.81-.085l-.452-.022m2.262.107.22.01c.294.015.695.034.764.032.111-.003.133-.063.135-.073.006-.023.002-.054-.053-.08L21.743.9c1.165.012 2.325.023 3.485.037 2.51.03 5.031.119 7.535.237m-31.81.818a.286.286 0 0 1 .12-.055h.003c.091-.02.745-.105 1.228-.163l-1.351.218Zm0 0a.193.193 0 0 0-.078.145.188.188 0 0 0 .052.132c.01.01.03.032.064.05.034.019.076.03.127.034 2.345.13 4.714.068 7.08-.033a434.38 434.38 0 0 0 1.835-.083c1.753-.082 3.5-.163 5.233-.183 8.115-.09 16.476.27 24.526 1.056a.315.315 0 0 0 .163-.028.21.21 0 0 0 .12-.14.187.187 0 0 0-.064-.185.275.275 0 0 0-.156-.064A229.136 229.136 0 0 0 15.26 1.636c-1.737.02-3.488.102-5.24.183l-1.353.063c-1.443.064-2.884.117-4.32.125L.954 1.993Z"/></svg>