<svg width="285" height="35" viewBox="0 0 285 35" fill="none" xmlns="http://www.w3.org/2000/svg">
<path fill-rule="evenodd" clip-rule="evenodd" d="M131.256 4.9574C130.226 5.016 129.197 5.07917 128.167 5.13777C114.517 5.68318 100.864 6.33675 87.1974 7.14361C78.6132 7.64845 72.6357 8.03159 67.7189 8.38318C45.4845 9.56867 23.3041 11.2816 1.27752 13.6976C0.872741 13.7427 0.667631 13.8237 0.641938 13.8373C0.0595621 14.1122 0.00952954 14.5856 0.000965188 14.8155C-0.0103037 15.14 0.070385 15.5681 0.601826 15.8521C0.665382 15.8837 0.806928 15.9603 1.04989 15.9783C1.1495 15.9874 2.35931 15.9018 4.64735 15.726C4.52564 15.9784 4.52024 16.2218 4.56621 16.4426C4.61219 16.659 4.81369 17.2901 5.66201 17.3577C6.34897 17.4118 11.108 16.7266 12.9561 16.5463C19.3717 15.9243 25.7788 15.2076 32.1989 14.6306C42.2431 13.7246 52.2945 12.9043 62.3472 12.1064C69.2005 11.5565 76.0543 11.0201 82.9112 10.4972C91.5224 9.95629 100.137 9.45593 108.755 9.00517C133.515 8.33355 158.276 8.18026 182.896 8.30197C212.236 8.45072 241.729 8.21181 270.879 11.6781L269.427 11.7323L268.909 11.7503C256.225 10.5874 240.967 11.4888 230.221 11.3807C183.951 10.9209 138.416 12.4219 92.3229 16.1091C74.2319 17.5605 56.1507 19.5845 38.1561 21.9058C31.9325 22.7127 15.772 24.6103 13.5719 25.318C12.8205 25.5569 12.6181 26.0753 12.5743 26.2556C12.5085 26.5261 12.5369 26.7875 12.6654 27.0444C12.7488 27.2112 12.8903 27.4051 13.1671 27.5538C13.2726 27.6124 13.4637 27.689 13.7625 27.7296C14.0357 27.7656 14.5216 27.7882 15.2509 27.7882C74.0394 27.5493 132.604 20.6122 191.293 17.6372C212.952 16.5374 234.611 15.4961 256.274 14.4819C260.516 14.2836 264.762 14.1528 269.008 13.9996C269.901 14.0852 270.775 14.1798 271.636 14.288L261.882 14.8019C242.441 15.8252 223.054 17.2766 203.649 18.8723C158.708 22.564 113.974 28.7077 68.995 31.7864C68.3747 31.8314 67.9055 32.3678 67.9479 32.9899C67.9902 33.6119 68.5289 34.0807 69.1491 34.0356C114.138 30.957 158.884 24.8087 203.834 21.117C223.216 19.5259 242.581 18.0744 261.999 17.0512C268.905 16.6906 278.573 16.1812 280.417 16.0775C280.638 16.064 280.764 16.055 280.787 16.0505C281.318 15.9919 281.508 15.6763 281.535 15.6403C281.81 15.3022 281.832 14.9551 281.747 14.6351C281.693 14.4368 281.553 14.0221 280.98 13.8508C280.827 13.8057 280.674 13.7606 280.516 13.7201C282.211 13.693 283.626 13.657 284.018 13.5669C284.848 13.373 284.979 12.7329 284.997 12.4985C285.015 12.2506 284.965 11.9847 284.767 11.7232C284.686 11.6151 284.55 11.4708 284.307 11.3536C284.185 11.2995 283.91 11.2094 283.428 11.1327C267.913 8.68512 252.281 7.45464 236.603 6.81456L246.326 6.89116C246.462 6.89116 246.525 6.88664 246.538 6.88664C247.111 6.83706 247.309 6.48546 247.354 6.42235C247.57 6.12035 247.611 5.80931 247.534 5.50279C247.53 5.48026 247.404 4.88073 246.8 4.69141L253.106 4.61031C254.386 4.59678 255.021 4.57882 255.134 4.56981C255.688 4.51572 255.887 4.19108 255.927 4.13699C256.193 3.80343 256.22 3.45635 256.121 3.11828C256.081 2.97855 255.941 2.47371 255.26 2.33848C255.224 2.32947 255.048 2.307 254.742 2.3025C251.943 2.25291 231.74 2.29341 223.969 2.33848C211.487 2.4106 199.001 2.48729 186.52 2.73972C177.446 2.92002 168.382 3.20393 159.317 3.57355C133.806 2.96052 108.321 1.91931 83.1397 0.0035984C82.5194 -0.0459847 81.9776 0.422823 81.9303 1.04036C81.8834 1.6624 82.3486 2.20328 82.9684 2.25286C98.9666 3.4654 115.087 4.33535 131.256 4.9574ZM227.174 13.6074C182.012 13.2423 137.525 14.7523 92.5028 18.3584C74.4478 19.8008 56.4031 21.8247 38.4445 24.1416C36.1313 24.4436 32.4216 24.8898 28.5861 25.3676C82.8575 24.2678 136.965 18.133 191.181 15.3834C203.175 14.7749 215.175 14.1843 227.174 13.6074Z" fill="#EF8B7C"/>
</svg>
