<svg width="41" height="3" viewBox="0 0 41 3" fill="none" xmlns="http://www.w3.org/2000/svg">
<path id="Vector" d="M39.7581 1.4452L39.7577 1.44517C34.534 1.08933 29.247 1.10897 23.9807 1.12854C21.4982 1.13776 19.0203 1.14697 16.5558 1.11681C14.1763 1.08736 11.7924 1.03841 9.4083 0.989452C6.69759 0.933789 3.98659 0.878121 1.28144 0.851096L1.2813 0.851094C1.18126 0.850205 1.0853 0.878875 1.01097 0.932031C0.936748 0.985116 0.87703 1.06909 0.875047 1.17437L0.875045 1.17448C0.873144 1.28003 0.930034 1.36602 1.00304 1.42118C1.07596 1.47627 1.1713 1.50687 1.27139 1.50779C3.97997 1.53485 6.68499 1.59043 9.39127 1.64604C11.7733 1.69498 14.1563 1.74394 16.5435 1.7735L16.5435 1.7735C19.0152 1.80379 21.4962 1.79442 23.9794 1.78504C29.228 1.76522 34.4866 1.74536 39.6891 2.09993L39.6893 2.09994C39.7891 2.10662 39.8867 2.08344 39.9648 2.03586C40.0422 1.98862 40.1092 1.91086 40.1228 1.80787L40.1229 1.80686C40.1359 1.70136 40.0876 1.61024 40.0187 1.54925C39.9504 1.48872 39.8575 1.45233 39.7581 1.4452Z" fill="#EF8B7C" stroke="#EF8B7C" stroke-width="0.25"/>
</svg>
